<svg width="236" height="36" viewBox="0 0 236 36" fill="none" xmlns="http://www.w3.org/2000/svg">
<g clip-path="url(#clip0_1132_1092)">
<path d="M229.977 11.161C233.064 11.161 235.567 8.66249 235.567 5.58048C235.567 2.49846 233.064 0 229.977 0C226.889 0 224.386 2.49846 224.386 5.58048C224.386 8.66249 226.889 11.161 229.977 11.161Z" fill="#51AAD2"/>
<path d="M211.135 29.3746C208.066 29.3746 204.45 28.3773 201.191 26.3588L197.408 32.7229C198.17 33.2216 198.955 33.6728 199.764 34.0765C205.806 34.5039 211.73 34.9789 217.511 35.5013C220.96 34.0527 222.911 31.2506 222.911 27.3324V27.2612C222.911 21.7282 218.795 19.876 211.968 18.1899C209.256 17.5013 208.637 17.1451 208.637 16.6227V16.5277C208.637 15.9815 209.184 15.6965 210.279 15.6965C212.563 15.6965 216.036 16.6227 218.891 18.2137L222.459 11.5646C219.2 9.59364 214.942 8.4538 210.493 8.4538C203.475 8.4538 198.883 11.7546 198.883 17.6675V17.7625C198.883 23.343 202.856 25.1477 209.684 26.8337C212.396 27.5224 212.681 27.8786 212.681 28.401V28.496C212.681 29.1372 212.229 29.3746 211.135 29.3746Z" fill="#263746"/>
<path d="M191.984 33.5541C195.481 30.9419 197.694 26.905 197.694 22.5356V22.4406C197.694 14.8417 191.366 8.43005 182.516 8.43005C173.619 8.43005 167.243 14.9366 167.243 22.5356V22.6306C167.243 26.4063 168.813 29.8733 171.454 32.4142C178.424 32.7467 185.299 33.1266 191.984 33.5541ZM177.71 22.4406C177.71 19.876 179.542 17.7625 182.064 17.7625C184.538 17.7625 186.513 19.876 186.513 22.5356V22.6306C186.513 25.1952 184.681 27.3087 182.159 27.3087C179.685 27.3087 177.71 25.1952 177.71 22.5356V22.4406Z" fill="#263746"/>
<path d="M165.815 32.1768V0.190002H154.158V12.1346C152.969 10.2111 150.328 8.43011 146.236 8.43011C139.861 8.43011 134.889 14.1056 134.889 22.6306V22.7256C134.889 26.0739 135.793 29.0185 137.22 31.2982C146.926 31.4882 156.537 31.7731 165.815 32.1768ZM145.594 22.4882C145.594 19.781 147.545 17.6676 150.114 17.6676C152.683 17.6676 154.634 19.8285 154.634 22.4882V22.5831C154.634 25.2903 152.683 27.4037 150.114 27.4037C147.545 27.4037 145.594 25.2903 145.594 22.5831V22.4882Z" fill="#263746"/>
<path d="M111.646 31.0607C113.097 31.0607 114.429 31.0607 115.857 31.0607V21.8469C115.857 19.5198 117.474 18.1899 119.14 18.1899C120.829 18.1899 122.28 19.5198 122.28 21.8469V31.1082C126.324 31.1319 129.655 31.1794 133.461 31.2506V18.2374C133.461 12.182 129.845 8.43005 124.159 8.43005C120.353 8.43005 117.76 10.591 115.857 12.8232V9.21369H104.913V31.0844C107.054 31.0607 109.338 31.0607 111.646 31.0607Z" fill="#263746"/>
<path d="M102.772 31.0845V9.21375H91.3531V23.2243C91.3531 25.5515 89.7354 26.8813 88.0701 26.8813C86.4048 26.8813 84.9299 25.5515 84.9299 23.2243V9.21375H73.5107V26.81C73.5107 28.6148 74.1055 30.2058 74.7002 31.5594C83.7879 31.3219 93.2563 31.1557 102.772 31.0845Z" fill="#263746"/>
<path d="M36.8743 33.1979V21.752C36.8743 19.4723 38.5396 18.2137 40.1573 18.2137C41.7988 18.2137 43.2976 19.496 43.2976 21.752V32.8654C47.104 32.6754 50.6724 32.4855 54.4788 32.3192V21.752C54.4788 19.4723 55.9062 18.2137 57.5239 18.2137C59.1654 18.2137 60.4263 19.496 60.4263 21.752V32.058C64.2327 31.9155 67.8012 31.7731 71.6075 31.6781V18.2374C71.6075 12.182 68.0628 8.43005 62.2819 8.43005C58.1425 8.43005 55.4304 10.306 53.1466 12.8707C51.6716 10.0211 48.7693 8.43005 45.1056 8.43005C41.3944 8.43005 38.7775 10.4485 36.8743 12.6807V9.21369H25.6931V33.9103C29.4994 33.6728 33.5437 33.4353 36.8743 33.1979Z" fill="#263746"/>
<path d="M7.54139 20.2559C9.49216 18.1662 10.6341 17.4063 11.776 17.4063C12.1804 17.4063 13.132 17.5013 13.132 18.3799C13.132 18.6411 13.1558 19.4248 11.3478 20.7071L0.475798 28.496V36C7.85066 35.2876 15.4634 34.6464 23.552 34.0765V27.4987H15.9392L17.9138 26.3351C20.7924 24.4828 23.5282 22.2031 23.5282 17.6675V17.5963C23.5282 12.2533 18.8654 8.38257 12.5611 8.38257C6.66117 8.38257 3.47332 10.7572 0.594747 14.2955L0 14.9842L6.92285 20.8733L7.54139 20.2559Z" fill="#263746"/>
</g>
<defs>
<clipPath id="clip0_1132_1092">
<rect width="235.567" height="36" fill="white"/>
</clipPath>
</defs>
</svg>
