<svg width="52" height="52" viewBox="0 0 52 52" fill="none" xmlns="http://www.w3.org/2000/svg">
<path d="M34.7094 52H0.579977V41.1522L16.5963 29.9115C19.2731 28.0562 19.2731 26.9212 19.2731 26.5502C19.2731 25.2842 17.8678 25.1532 17.2655 25.1532C15.6148 25.1532 13.9195 26.2664 11.0642 29.2785L10.1942 30.1952L0 21.7046L0.825352 20.7006C5.06365 15.5932 9.65885 12.1882 18.3362 12.1882C27.5935 12.1882 34.3302 17.754 34.3302 25.437V25.5461C34.3302 32.0505 30.4265 35.4118 26.2105 38.0746L23.4222 39.8207H34.7094V52Z" fill="#263746"/>
<path d="M43.7911 16.0644C48.3247 16.0644 52 12.4683 52 8.0322C52 3.59614 48.3247 0 43.7911 0C39.2574 0 35.5822 3.59614 35.5822 8.0322C35.5822 12.4683 39.2574 16.0644 43.7911 16.0644Z" fill="#46A8C6"/>
</svg>
